<svg width="20.899048" height="21.243042" viewBox="0 0 20.899 21.243" fill="none" xmlns="http://www.w3.org/2000/svg" xmlns:xlink="http://www.w3.org/1999/xlink">
	<desc>
			Created with Pixso.
	</desc>
	<defs/>
	<path id="Vector" d="M3.24 4.65L0 1.41L1.41 0L4.65 3.24L19.89 3.24C20.05 3.24 20.2 3.27 20.34 3.34C20.48 3.41 20.6 3.52 20.7 3.64C20.79 3.77 20.85 3.91 20.88 4.06C20.91 4.22 20.9 4.38 20.85 4.53L18.45 12.53C18.39 12.73 18.26 12.91 18.09 13.04C17.92 13.17 17.71 13.24 17.49 13.24L5.24 13.24L5.24 15.24L16.24 15.24L16.24 17.24L4.24 17.24C3.97 17.24 3.72 17.13 3.53 16.95C3.34 16.76 3.24 16.5 3.24 16.24L3.24 4.65ZM5.24 5.24L5.24 11.24L16.75 11.24L18.55 5.24L5.24 5.24ZM4.74 21.24C4.34 21.24 3.96 21.08 3.68 20.8C3.4 20.52 3.24 20.14 3.24 19.74C3.24 19.34 3.4 18.96 3.68 18.68C3.96 18.4 4.34 18.24 4.74 18.24C5.14 18.24 5.52 18.4 5.8 18.68C6.08 18.96 6.24 19.34 6.24 19.74C6.24 20.14 6.08 20.52 5.8 20.8C5.52 21.08 5.14 21.24 4.74 21.24ZM16.74 21.24C16.34 21.24 15.96 21.08 15.68 20.8C15.4 20.52 15.24 20.14 15.24 19.74C15.24 19.34 15.4 18.96 15.68 18.68C15.96 18.4 16.34 18.24 16.74 18.24C17.14 18.24 17.52 18.4 17.8 18.68C18.08 18.96 18.24 19.34 18.24 19.74C18.24 20.14 18.08 20.52 17.8 20.8C17.52 21.08 17.14 21.24 16.74 21.24Z" fill="#2E2E2E" fill-opacity="1.000000" fill-rule="nonzero"/>
</svg>
