<svg width="184.000000" height="27.000000" viewBox="0 0 184 27" fill="none" xmlns="http://www.w3.org/2000/svg" xmlns:xlink="http://www.w3.org/1999/xlink">
	<desc>
			Created with Pixso.
	</desc>
	<defs>
		<clipPath id="clip35_167">
			<rect id="123gold-logo-gold 1" width="184.000000" height="27.000000" fill="white" fill-opacity="0"/>
		</clipPath>
	</defs>
	<rect id="123gold-logo-gold 1" width="184.000000" height="27.000000" fill="#FFFFFF" fill-opacity="0"/>
	<g clip-path="url(#clip35_167)">
		<path id="Vector" d="M125.09 24.01L113.12 24.01C112.12 24.03 111.13 23.75 110.28 23.21C109.34 22.56 108.58 21.48 108.57 19.48L108.57 7.48C108.57 6.47 108.85 5.48 109.4 4.63C110.05 3.69 111.13 2.93 113.12 2.92L125.09 2.92C126.1 2.92 127.09 3.2 127.94 3.75C128.87 4.4 129.63 5.48 129.65 7.48L129.65 19.47C129.65 20.47 129.36 21.46 128.82 22.3C128.17 23.25 127.09 24.01 125.09 24.01ZM129.99 1.69C128.59 0.59 126.87 0 125.09 0L113.12 0C112.03 -0.05 110.93 0.15 109.93 0.6C108.93 1.05 108.04 1.72 107.34 2.57C106.25 3.97 105.65 5.7 105.66 7.48L105.66 19.47C105.6 20.56 105.81 21.65 106.25 22.66C106.69 23.66 107.36 24.55 108.21 25.25C109.61 26.34 111.33 26.94 113.11 26.94L125.1 26.94C126.19 26.99 127.28 26.79 128.28 26.35C129.28 25.9 130.17 25.24 130.88 24.4C131.98 22.99 132.58 21.25 132.58 19.47L132.58 7.48C132.63 6.38 132.42 5.29 131.97 4.28C131.52 3.28 130.85 2.39 130 1.69L129.99 1.69Z" fill="#B48C50" fill-opacity="1.000000" fill-rule="nonzero"/>
		<path id="Vector" d="M61.73 1.78C60.51 0.68 58.94 0.06 57.3 0.04L39.83 0.04L39.83 2.97L57.3 2.97C58.61 3.01 61.32 3.57 61.34 7.52C61.35 11.48 58.61 12.05 57.3 12.08L45.24 12.08L45.24 15.01L57.3 15.01C58.62 15.05 61.32 15.6 61.34 19.51C61.35 23.42 58.61 24.03 57.3 24.07L39.83 24.07L39.83 27L57.3 27C58.93 26.98 60.51 26.37 61.73 25.28C63.07 24.09 64.04 22.19 64.03 19.51C64.03 17.26 63.32 15.6 61.57 13.56C63.35 11.46 64.04 9.8 64.03 7.54C64.03 4.87 63.07 2.97 61.73 1.77L61.73 1.78Z" fill="#B48C50" fill-opacity="1.000000" fill-rule="nonzero"/>
		<path id="Vector" d="M94.2 12.39L94.2 14.95L99.29 14.95L99.29 24.02C98.45 24.02 96.12 24.02 92.24 24.02C89.73 24.02 86.58 24.02 82.77 24.02C81.27 23.98 78.22 23.39 78.22 19.47L78.22 7.47C78.25 5.97 78.85 2.92 82.77 2.92L100.76 2.92L100.76 0L82.76 0C77.35 0 75.3 4.37 75.29 7.47L75.29 19.46C75.29 24.88 79.65 26.93 82.76 26.94L102.21 26.94L102.21 12.03L94.2 12.03L94.2 12.39Z" fill="#B48C50" fill-opacity="1.000000" fill-rule="nonzero"/>
		<path id="Vector" d="M138.94 19.46L138.94 0L136.01 0L136.01 19.46C136.01 24.88 140.38 26.94 143.48 26.94L154.3 26.94L154.3 24.01L143.48 24.01C141.98 23.98 138.95 23.39 138.94 19.46Z" fill="#B48C50" fill-opacity="1.000000" fill-rule="nonzero"/>
		<path id="Vector" d="M1.07 0L0 0L0 2.92L1.07 2.92C2.57 2.97 5.61 3.57 5.62 7.48L5.62 26.94L8.54 26.94L8.54 7.48C8.53 2.05 4.16 0 1.07 0Z" fill="#B48C50" fill-opacity="1.000000" fill-rule="nonzero"/>
		<path id="Vector" d="M176.53 0L157.02 0L157.02 2.92L176.53 2.92C180.45 2.92 181.03 5.97 181.07 7.48L181.07 19.46C181.07 23.38 177.97 23.98 176.47 24.01C172.66 24.01 169.5 24.01 167 24.01C163.11 24.01 160.78 24.01 159.95 24.01L159.95 5.82L157.02 5.82L157.02 26.94L176.53 26.94C179.63 26.94 183.99 24.88 184 19.46L184 7.48C183.99 4.36 181.93 0 176.53 0Z" fill="#B48C50" fill-opacity="1.000000" fill-rule="nonzero"/>
		<path id="Vector" d="M29.69 0L14.37 0L14.37 2.92L29.69 2.92C33.14 2.92 33.75 5.89 33.81 7.39C33.75 8.88 33.14 11.86 29.69 11.86L18.55 11.9C17.52 11.86 16.49 12.07 15.55 12.52C14.62 12.97 13.81 13.65 13.2 14.48C12.2 15.92 11.66 17.63 11.66 19.38L11.66 19.74C11.81 22.76 13.41 27.01 18.2 27.02L36.26 27.02L36.26 24.07L18.24 24.07C17.6 24.11 16.96 23.97 16.4 23.65C15.84 23.33 15.38 22.86 15.09 22.28C14.65 21.35 14.43 20.33 14.44 19.3C14.48 17.82 15.09 14.8 18.56 14.81L29.69 14.81C34.44 14.81 36.36 10.89 36.54 7.87L36.54 7.5C36.54 5.75 36 4.05 35 2.61C34.39 1.78 33.58 1.1 32.64 0.65C31.71 0.2 30.68 -0.02 29.65 0.02L29.69 0Z" fill="#B48C50" fill-opacity="1.000000" fill-rule="nonzero"/>
	</g>
</svg>
